<svg id="Layer_1" data-name="Layer 1" xmlns="http://www.w3.org/2000/svg" viewBox="0 0 236.71 231.04"><defs><style>.cls-1{fill:#29abe2;}</style></defs><title>blue-scribble</title><path class="cls-1" d="M175.27,117.39l-1.44-3h0l-.9-1.05-.81-.62h0l-1.13-1-1-.67-.93-.66-.75-.44-.49-.18-.62-.31a14.44,14.44,0,0,0-2.57-.88,19.94,19.94,0,0,0-2.2-.44L161,108a19,19,0,0,0-2.41,0,33.63,33.63,0,0,0-5.87.82A119.05,119.05,0,0,0,138,113.42c-4.4,1.63-8.64,3.31-12.84,5l-24.84,10.29C87.72,134,75.06,139.16,62.8,143.46c6.13-5.78,12.56-11.39,18.75-16.67,11.41-9.64,22.58-18.53,33-26.62C135.42,84,153.3,71,165.83,61.9l19.72-14,.4-.28.57-.42a21.22,21.22,0,1,0-25.89-33.64L140.91,28.71C128.48,38.42,110.82,52.35,90,69.77,79.61,78.5,68.43,88.09,56.8,98.7,51,104,45.07,109.58,39.09,115.55a229.45,229.45,0,0,0-18,19.93,69.08,69.08,0,0,0-9.14,14.64,32.56,32.56,0,0,0-2.09,6.65,24,24,0,0,0-.48,5,23.48,23.48,0,0,0,1,6.71s1.27,3.39.76,2l.08.18.17.37.39.82A24.08,24.08,0,0,0,13,174.11a21.79,21.79,0,0,0,5.39,5.77,25.28,25.28,0,0,0,9.46,4.25,37.35,37.35,0,0,0,11.85.52,69.79,69.79,0,0,0,8.45-1.42,140.52,140.52,0,0,0,14.32-4.17c17.88-6.25,34.23-13.84,50.59-21.32l6.13-2.82c-3.82,4-7.65,7.93-11.4,12-2.83,3.08-5.62,6.18-8.43,9.6-1.4,1.7-2.82,3.56-4.29,5.71a35,35,0,0,0-2.39,4.13c-.22.48-.37.7-.64,1.39s-.5,1.36-.71,2.05a17.4,17.4,0,0,0-.55,7c1.36,5.23.41,1.55.74,2.76l.06.17a16.16,16.16,0,0,0,1.16,2.3,14.33,14.33,0,0,0,2.35,2.87,12.24,12.24,0,0,0,2.14,1.64,16.24,16.24,0,0,0,1.46.78,15.81,15.81,0,0,0,1.52.63c.5.18.67.2,1,.3.63.16,1.26.29,1.9.38s.86.08,1.31.12a15.94,15.94,0,0,0,2.07,0,28.52,28.52,0,0,0,4.88-.7c2.5-.56,4.48-1.16,6.42-1.76l10.73-3.54c6.79-2.29,13.18-4.39,19.31-6.11,12.21-3.46,23.42-5.46,32.47-5.23s15.27,2.72,18.76,6A23.43,23.43,0,0,1,205.38,208a38.93,38.93,0,0,1,1.2,5l0,.18a10.45,10.45,0,1,0,20.63-3.38s-.11-.65-.31-1.92-.56-3.15-1.2-5.63a44.68,44.68,0,0,0-11.47-20.53,42.1,42.1,0,0,0-14.59-9.35,60,60,0,0,0-18.28-3.78c-12.72-.76-26,1.34-39.64,4.62-.92.22-1.86.49-2.79.73l5.67-5.48c6.06-5.9,12.25-11.89,18.52-18.72a87.68,87.68,0,0,0,9.67-12.22,32.08,32.08,0,0,0,2.69-5.24l.69-2.08.3-1.06a18.28,18.28,0,0,0,.37-2.52,20.08,20.08,0,0,0-.36-5.67l-.29-1.19-.05-.2c.24.49-.68-1.67-1.39-3.2-.5-1.1-.9-1.87-.68-1.11"/></svg>