<?xml version="1.0" encoding="utf-8"?>
<!-- Generator: Adobe Illustrator 20.0.0, SVG Export Plug-In . SVG Version: 6.00 Build 0)  -->
<svg version="1.1" id="Layer_1" xmlns="http://www.w3.org/2000/svg" xmlns:xlink="http://www.w3.org/1999/xlink" x="0px" y="0px"
	 viewBox="0 0 204.1 157.1" style="enable-background:new 0 0 204.1 157.1;" xml:space="preserve">
<style type="text/css">
	.st0{fill:#787878;}
</style>
<g>
	<path class="st0" d="M102.1,157.1c-25,0-50.1,0-75.1,0c-12.9,0-23.3-8.1-26.3-20.7c-0.5-1.9-0.7-3.9-0.7-5.8C0,104.8,0,79,0,53.2
		c0-14.9,11.8-26.5,26.7-26.6c9.4,0,18.8,0,28.1,0c1.6,0,2.3-0.2,2.4-2.1C58.4,10.5,69.8,0.1,83.9,0c12.1,0,24.2,0,36.3,0
		c14.2,0,25.6,10.6,26.6,24.7c0.1,1.6,0.7,1.8,2,1.8c9.5,0,18.9,0,28.4,0c12.9,0,23.2,8.2,26.2,20.8c0.5,2.1,0.7,4.2,0.7,6.3
		c0,25.4,0,50.8,0,76.2c0,15.4-11.7,27.1-27.1,27.1C152,157.1,127.1,157.1,102.1,157.1z M149,91.9C149,66,127.9,45,102,45
		c-25.8,0-46.7,20.9-46.9,46.8c-0.2,25.7,21.1,46.9,47,46.9C127.4,138.7,148.7,118.4,149,91.9z"/>
	<path class="st0" d="M128.5,91.9c-0.1,14.6-11.9,26.4-26.6,26.4c-14.6,0-26.7-12.1-26.4-26.5c0.2-14.9,12-26.5,26.8-26.4
		C116.9,65.5,128.6,77.4,128.5,91.9z"/>
</g>
</svg>
