<svg id="Layer_1" data-name="Layer 1" xmlns="http://www.w3.org/2000/svg" viewBox="0 0 236.88 231.04"><title>camera</title><path d="M117.95,161.84C96.46,161.84,79,145,79,124.16s17.42-37.68,38.91-37.68,38.91,16.87,38.91,37.68h0C156.84,145,139.43,161.82,117.95,161.84Zm0-64c-15.17,0-27.46,11.91-27.46,26.6s12.3,26.6,27.46,26.6,27.46-11.91,27.46-26.6h0c0-14.69-12.3-26.6-27.46-26.6Z"/><path d="M206.92,204.5H30.76C15.48,204.39,3.12,192.42,3,177.63V81.5c.11-14.8,12.47-26.77,27.75-26.87H57.08a3.8,3.8,0,0,0,3.15-2.22l6.87-19.95a15.72,15.72,0,0,1,14-10h74.95a15,15,0,0,1,14,10l6.87,19.95a3.8,3.8,0,0,0,3.15,2.22h26.32c15.28.11,27.64,12.08,27.75,26.87v96.13C234.6,192,222.9,204.06,208,204.49ZM30.76,65.65A16.22,16.22,0,0,0,14.46,81.44v96.13a16.22,16.22,0,0,0,16.31,15.79H206.92a16.22,16.22,0,0,0,16.31-15.79V81.5a16.22,16.22,0,0,0-16.31-15.85H180.61a15,15,0,0,1-14-10l-6.87-19.95a3.8,3.8,0,0,0-3.15-2.22H81.4a3.8,3.8,0,0,0-3.15,2.22L71.39,56a15.72,15.72,0,0,1-14,10H30.76Z"/><path d="M118.56,183.17C84.9,183.32,57.5,157,57.34,124.44s27-59.13,60.65-59.28S179,91.29,179.2,123.88q0,.14,0,.28C179.17,156.63,152.08,183,118.56,183.17Zm0-106.66C91.3,76.59,69.27,98,69.35,124.44s22.24,47.73,49.49,47.65,49.28-21.53,49.2-47.93S145.77,76.52,118.56,76.51Z"/><path d="M200.26,81.5A7.48,7.48,0,1,1,192.53,89h0a7.57,7.57,0,0,1,7.67-7.48h.06m0-8.31A15.8,15.8,0,1,0,216.56,89h0a16.22,16.22,0,0,0-16.31-15.79Z"/></svg>