<svg id="Layer_1" data-name="Layer 1" xmlns="http://www.w3.org/2000/svg" viewBox="0 0 180 170.72"><defs><style>.cls-1{fill:#58595b;}.cls-2{font-size:8px;fill:#fff;font-family:Avenir-Medium, Avenir;}.cls-3{fill:#dddcca;}.cls-4{fill:#595959;}.cls-5{fill:#aa6b3e;}</style></defs><title>ev</title><rect class="cls-1" x="-0.03" width="180.15" height="28.4"/><text class="cls-2" transform="translate(83.54 16.9)">EV</text><rect class="cls-3" x="-0.12" y="27.64" width="180.15" height="142.96"/><path class="cls-4" d="M100.92,88.25l-1.68-.52H96.31L94.39,90c-2,4.17-2.77,10.75-.18,15.19h6.71Z"/><path class="cls-4" d="M100.63,105.14H94.35s-1.05,11.63.16,14.7h5.91S102.8,107.56,100.63,105.14Z"/><path class="cls-4" d="M100.43,119.84a36.87,36.87,0,0,1,.39,7.8c-.51,3.59-.87,11.22-.87,11.22H91.12s-.62-2.12,0-2.75,4.3-.83,4.3-.83-1.77-11-.87-15.43"/><path class="cls-4" d="M76.05,96.87l.09-.82,5.07.72v0l8.16-1.48,6.5-3s.88-1.82,2.09-1.82A2.37,2.37,0,0,1,100.15,93a2.68,2.68,0,0,1-.82,2l-9.15,4.1-8.88.19c-3.34.72-2.64-1.57-2.64-1.57Z"/><rect class="cls-4" x="100.81" y="87.43" width="6.06" height="17.09" rx="0.72" ry="0.72" transform="translate(207.69 191.95) rotate(180)"/><path class="cls-4" d="M94.42,86.7A5.81,5.81,0,0,1,97.6,76.53a5.52,5.52,0,0,1,6.16,5.29,8.34,8.34,0,0,1-1.46,3.88C102,86.06,94.42,86.7,94.42,86.7Z"/><path class="cls-4" d="M102.31,85.7c-.44.7-1.49,1.08-1.49,2.45s-5.42,1.42-5.42,1.42a6.5,6.5,0,0,0,0-1.84c-.17-1-.93-1-.93-1S103.32,84.2,102.31,85.7Z"/><path class="cls-4" d="M102.91,96.47l1-.06a1.84,1.84,0,0,0-.42-.92c-.76-1.17-2.18-3.35.14-6.87,1.12-1.71,1.43-3.15.91-4.28a3.91,3.91,0,0,0-2.87-1.9l-.13,1s1.61.24,2.1,1.33c.36.8.08,1.92-.84,3.32-2.68,4.07-.9,6.8-.14,8A3.6,3.6,0,0,1,102.91,96.47Z"/><path class="cls-5" d="M-.12,170.6H180V133.41c-64.84,0-126.06,5.87-180.15,16.28Z"/></svg>