<svg id="Layer_1" data-name="Layer 1" xmlns="http://www.w3.org/2000/svg" viewBox="0 0 179.79 177.6"><defs><style>.cls-1{fill:#58595b;}.cls-2{fill:#dddcca;}.cls-3{fill:#b2b2ab;}.cls-4,.cls-7{fill:#fff;}.cls-5{fill:#595959;}.cls-6{fill:#aa6b3f;}.cls-7{font-size:8px;font-family:BrandonGrotesque-Medium, Brandon Grotesque;}</style></defs><title>IV</title><rect class="cls-1" width="179.79" height="28.4"/><rect class="cls-2" y="34.79" width="179.79" height="142.8"/><path class="cls-3" d="M170.09,135.37c0-49.21-35.59-89.11-79.49-89.11S11.12,86.15,11.12,135.37c0,1.94.06,3.86.17,5.77,56,.77,109,5.91,156.72,14.56A99.71,99.71,0,0,0,170.09,135.37Z"/><rect class="cls-4" x="76.87" y="81" width="26.06" height="16.26"/><polyline class="cls-5" points="78.14 116.69 81.57 114.85 81.57 112.5 76.87 114.75"/><rect class="cls-5" x="81.28" y="122.1" width="14.99" height="5.02"/><polyline class="cls-5" points="81.57 127.26 83.23 145.45 86.1 145.45 87.94 127.26"/><polyline class="cls-5" points="89.45 127.26 91.11 145.45 93.98 145.45 95.82 127.26"/><polyline class="cls-5" points="100.03 116.66 96.26 114.48 96.26 112.13 100.75 114.16"/><ellipse class="cls-5" cx="89.06" cy="96.07" rx="3.54" ry="4.75"/><polygon class="cls-5" points="100.75 114.16 96.43 103.32 81.88 103.26 76.87 114.75 78.14 116.69 82.13 109.97 82.47 119.1 95.42 119.1 96.01 109.88 100.03 116.66 100.75 114.16"/><path class="cls-4" d="M106.6,124a.9.9,0,0,0-.9-.9h-4a.9.9,0,1,0,0,1.79h1.1V127a2.44,2.44,0,0,1-2.07,2.4v-.09a2.11,2.11,0,0,0-2.15-2.15h-7.7v-3.4h5.23A1.85,1.85,0,0,0,98,121.57l-1.67-15A2.4,2.4,0,0,0,94,104.43H84.57a2.4,2.4,0,0,0-2.39,2.14l-1.67,15a1.85,1.85,0,0,0,1.91,2.14h5.23v3.4H79.94a2.11,2.11,0,0,0-2.15,2.15v.09a2.44,2.44,0,0,1-2.07-2.4V124.9h1.1a.9.9,0,1,0,0-1.79h-4a.9.9,0,1,0,0,1.79h1.12V127a4.24,4.24,0,0,0,3.87,4.22,2,2,0,0,0,2.14,2h7.71v6.47a18.48,18.48,0,0,0-8.91,3,1.58,1.58,0,0,0-.35,0A1.66,1.66,0,1,0,80,144.2a1.68,1.68,0,0,0-.13-.65A17.43,17.43,0,0,1,88.55,141v1.75a1.66,1.66,0,0,0-.9,1.48,1.61,1.61,0,1,0,3.22,0,1.66,1.66,0,0,0-.9-1.48V141a17.59,17.59,0,0,1,8.72,2.49,1.68,1.68,0,0,0-.18.74,1.61,1.61,0,1,0,1.61-1.66l-.19,0a18.58,18.58,0,0,0-9.06-3v-6.46h7.7a2.12,2.12,0,0,0,2.14-2,4.24,4.24,0,0,0,3.87-4.22v-2.06h1.12a.9.9,0,0,0,.9-.9"/><polygon class="cls-4" points="75.35 97.45 52.4 100.98 50.86 84.52 73.81 81 75.35 97.45"/><polygon class="cls-4" points="104.44 97.45 127.39 100.98 128.93 84.52 105.98 81 104.44 97.45"/><path class="cls-6" d="M0,140.43V177.6H179.79V157.82C126,147,64.88,140.8,0,140.43Z"/><text class="cls-7" transform="translate(84.92 16.81)">IV</text></svg>