<svg id="Layer_1" data-name="Layer 1" xmlns="http://www.w3.org/2000/svg" viewBox="0 0 180 170.72"><defs><style>.cls-1{fill:#dddcca;}.cls-2{fill:#b2b1aa;}.cls-3,.cls-7{fill:#fff;}.cls-4{fill:#595959;}.cls-5{fill:#aa6b3e;}.cls-6{fill:#58595b;}.cls-7{font-size:8px;font-family:Avenir-Medium, Avenir;}</style></defs><title>iv</title><rect class="cls-1" x="0.1" y="27.43" width="179.79" height="142.8"/><path class="cls-2" d="M170.19,128c0-49.21-35.59-89.11-79.49-89.11S11.22,78.79,11.22,128c0,1.94.06,3.86.17,5.77,56,.77,109,5.91,156.72,14.56A99.71,99.71,0,0,0,170.19,128Z"/><rect class="cls-3" x="76.97" y="73.63" width="26.06" height="16.26"/><polyline class="cls-4" points="78.25 109.32 81.67 107.49 81.67 105.14 76.97 107.39"/><rect class="cls-4" x="81.38" y="114.73" width="14.99" height="5.02"/><polyline class="cls-4" points="81.67 119.9 83.34 138.08 86.2 138.08 88.05 119.9"/><polyline class="cls-4" points="89.55 119.9 91.22 138.08 94.08 138.08 95.93 119.9"/><polyline class="cls-4" points="100.14 109.29 96.37 107.11 96.37 104.76 100.85 106.79"/><ellipse class="cls-4" cx="89.17" cy="88.71" rx="3.54" ry="4.75"/><polygon class="cls-4" points="100.85 106.79 96.53 95.95 81.99 95.89 76.97 107.39 78.25 109.32 82.24 102.61 82.58 111.73 95.53 111.73 96.11 102.52 100.14 109.29 100.85 106.79"/><path class="cls-3" d="M106.71,116.63a.9.9,0,0,0-.9-.9h-4a.9.9,0,1,0,0,1.79h1.1v2.06a2.44,2.44,0,0,1-2.07,2.4v-.09a2.11,2.11,0,0,0-2.15-2.15H91v-3.4h5.23a1.85,1.85,0,0,0,1.91-2.14l-1.67-15a2.4,2.4,0,0,0-2.39-2.14H84.67a2.4,2.4,0,0,0-2.39,2.14l-1.67,15a1.85,1.85,0,0,0,1.91,2.14h5.23v3.4H80a2.11,2.11,0,0,0-2.15,2.15V122a2.44,2.44,0,0,1-2.07-2.4v-2.06h1.1a.9.9,0,1,0,0-1.79h-4a.9.9,0,1,0,0,1.79H74v2.06a4.24,4.24,0,0,0,3.87,4.22,2,2,0,0,0,2.14,2h7.71v6.47a18.48,18.48,0,0,0-8.91,3,1.58,1.58,0,0,0-.35,0,1.66,1.66,0,1,0,1.61,1.66,1.68,1.68,0,0,0-.13-.65,17.43,17.43,0,0,1,8.67-2.57v1.75a1.66,1.66,0,0,0-.9,1.48,1.61,1.61,0,1,0,3.22,0,1.66,1.66,0,0,0-.9-1.48v-1.75a17.59,17.59,0,0,1,8.72,2.49,1.68,1.68,0,0,0-.18.74,1.61,1.61,0,1,0,1.61-1.66l-.19,0a18.58,18.58,0,0,0-9.06-3v-6.46h7.7a2.12,2.12,0,0,0,2.14-2,4.24,4.24,0,0,0,3.87-4.22v-2.06h1.12a.9.9,0,0,0,.9-.9"/><polygon class="cls-3" points="75.46 90.08 52.5 93.61 50.96 77.16 73.92 73.63 75.46 90.08"/><polygon class="cls-3" points="104.54 90.08 127.5 93.61 129.04 77.16 106.08 73.63 104.54 90.08"/><path class="cls-5" d="M.1,133.07v37.16H179.9V150.45C126.09,139.68,65,133.43.1,133.07Z"/><rect class="cls-6" x="0.1" width="179.79" height="28.4"/><text class="cls-7" transform="translate(85.24 17.26)">IV</text></svg>