<svg id="Layer_1" data-name="Layer 1" xmlns="http://www.w3.org/2000/svg" viewBox="0 0 236.88 230.78"><defs><style>.cls-1{fill:#ed1c24;}</style></defs><title>red-pin</title><path class="cls-1" d="M192.82,72.33c-.65,19.53-8.84,35.4-25.3,48a16.33,16.33,0,0,0-5.44,6.75q-19.1,45.18-38.37,90.31c-.14.33-.33.64-.44,1a4.69,4.69,0,0,1-4.78,3.4,5.08,5.08,0,0,1-5.13-3.44q-6.17-14.6-12.37-29.19-13.18-31-26.33-62a15.68,15.68,0,0,0-5.22-6.59c-14.06-10.64-22.56-23.9-24.78-39.88C42,61.18,48.29,44,63.84,29.62,86.31,8.84,120.92,3.06,150.63,15.57c24.9,10.49,38.82,28,41.74,51.74C192.6,69.22,192.71,71.13,192.82,72.33Z"/></svg>