<svg id="Layer_1" data-name="Layer 1" xmlns="http://www.w3.org/2000/svg" viewBox="0 0 266.89 320.54"><defs><style>.cls-1{fill:none;stroke:#000;stroke-miterlimit:10;stroke-width:10px;}.cls-2{font-size:38px;font-family:MyriadPro-Regular, Myriad Pro;}.cls-3{letter-spacing:-0.06em;}.cls-4{letter-spacing:-0.01em;}</style></defs><title>take-photo</title><path d="M133,169.15c-16.24,0-29.4-12.75-29.4-28.47s13.16-28.47,29.4-28.47,29.4,12.75,29.4,28.47h0C162.43,156.4,149.28,169.14,133,169.15Zm0-48.36c-11.46,0-20.75,9-20.75,20.1S121.59,161,133,161s20.75-9,20.75-20.1h0c0-11.1-9.29-20.1-20.75-20.1Z"/><path d="M200.28,201.39H67.17c-11.55-.08-20.89-9.12-21-20.31V108.44c.08-11.18,9.42-20.23,21-20.31H87.06a2.87,2.87,0,0,0,2.38-1.67l5.19-15.07a11.88,11.88,0,0,1,10.59-7.54h56.63a11.34,11.34,0,0,1,10.59,7.54l5.19,15.07A2.87,2.87,0,0,0,180,88.14h19.89c11.55.08,20.89,9.12,21,20.31v72.64c.33,10.89-8.51,20-19.75,20.3ZM67.17,96.47A12.26,12.26,0,0,0,54.85,108.4V181A12.26,12.26,0,0,0,67.17,193H200.28A12.26,12.26,0,0,0,212.6,181v-72.6a12.26,12.26,0,0,0-12.32-12H180.39a11.34,11.34,0,0,1-10.59-7.54l-5.19-15.07a2.87,2.87,0,0,0-2.38-1.67H105.43a2.87,2.87,0,0,0-2.38,1.67L97.86,89.14a11.88,11.88,0,0,1-10.59,7.54H67.17Z"/><path d="M133.51,185.27c-25.43.12-46.14-19.75-46.26-44.38s20.4-44.68,45.83-44.8,46.14,19.75,46.26,44.38q0,.1,0,.21C179.31,165.22,158.84,185.13,133.51,185.27Zm0-80.59c-20.59.06-37.24,16.27-37.18,36.21s16.8,36.06,37.4,36S171,160.63,170.9,140.68,154.07,104.69,133.51,104.68Z"/><path d="M195.24,108.44a5.65,5.65,0,1,1-5.84,5.65h0a5.72,5.72,0,0,1,5.79-5.65h0m0-6.28a11.94,11.94,0,1,0,12.32,11.93h0a12.26,12.26,0,0,0-12.32-11.93Z"/><circle class="cls-1" cx="133.54" cy="132.62" r="125.86"/><text class="cls-2" transform="translate(45.3 311.07)"><tspan class="cls-3">T</tspan><tspan x="16.45" y="0">ake pho</tspan><tspan class="cls-4" x="143.26" y="0">t</tspan><tspan x="155.61" y="0">o</tspan></text></svg>